<svg xmlns="http://www.w3.org/2000/svg" width="82" height="81.98" viewBox="0 0 82 81.98"><defs><style>.a{fill:#97de3d;}.b{fill:#45b649;}.c{fill:#fff;}.d{fill:#fdb62f;}.e{fill:#fec9a3;}.f{fill:#f7bb8f;}.g{fill:#ff9100;}.h{fill:#d9d9d9;}</style></defs><g transform="translate(0 -0.063)"><g transform="translate(14.134 0.063)"><path class="a" d="M141.964,105.191a3.323,3.323,0,0,0-.495-1.753l-3.152-5.074a5.556,5.556,0,0,1-.594-2.516V80.216a18.374,18.374,0,0,0-18.375-18.375h-8.481A18.374,18.374,0,0,0,92.493,80.216V95.849a5.552,5.552,0,0,1-.594,2.516l-3.152,5.074a3.323,3.323,0,0,0-.495,1.753h0a3.306,3.306,0,0,0,3.293,3.293h47.124A3.306,3.306,0,0,0,141.964,105.191Z" transform="translate(-88.253 -51.947)"/><path class="b" d="M200.883,9.957,207.95.063H185.335L192.4,9.957v2.827h8.481Z" transform="translate(-169.787 -0.063)"/></g><path class="b" d="M225.745,140.5l-3.152-5.074a5.557,5.557,0,0,1-.594-2.516V117.276a18.37,18.37,0,0,0-3.859-11.308c-3.774,20.792-17.06,32.778-29.541,39.577h34.347a3.308,3.308,0,0,0,2.827-5.046Z" transform="translate(-158.395 -88.944)"/><path class="c" d="M225.863,149.751v-.9a4.763,4.763,0,0,0-4.749-4.749h-.9V141.27h-2.827V144.1h-.9a4.749,4.749,0,0,0-1.668,9.2l2.572.961v5.385h-.9a1.923,1.923,0,0,1-1.922-1.922h0v-.9h-2.827v.9a4.763,4.763,0,0,0,4.749,4.749h4.636a4.749,4.749,0,0,0,1.668-9.2l-2.572-.961v-5.385h.9a1.923,1.923,0,0,1,1.922,1.922h0v.9Zm-4.071,6.163a1.952,1.952,0,0,1,1.244,1.809,1.923,1.923,0,0,1-1.922,1.922h-.9V155.32Zm-4.41-4.664-1.583-.594a1.951,1.951,0,0,1-1.244-1.809,1.923,1.923,0,0,1,1.922-1.922h.9Z" transform="translate(-177.806 -118.592)"/><g transform="translate(0 2.89)"><path class="d" d="M402.8,29.021h0a6.869,6.869,0,0,0-5.654-5.654h0a6.869,6.869,0,0,0,5.654-5.654h0a6.869,6.869,0,0,0,5.654,5.654h0A6.869,6.869,0,0,0,402.8,29.021Z" transform="translate(-333.54 -17.713)"/><path class="d" d="M5.654,205.53h0A6.869,6.869,0,0,0,0,199.877H0a6.869,6.869,0,0,0,5.654-5.654h0a6.869,6.869,0,0,0,5.654,5.654h0A6.869,6.869,0,0,0,5.654,205.53Z" transform="translate(0 -165.954)"/></g><path class="e" d="M118.432,271.738a4.24,4.24,0,0,0-5.654-1.569l-20.057,8.565a2.835,2.835,0,0,1-1.117.226H66.742a2.827,2.827,0,1,1,0-5.654H78.05a8.48,8.48,0,0,0,8.481-8.481H63.011a12.852,12.852,0,0,0-10.021,4.82l-8.862,10.728,9.979,18.29,38.4-9.23a20.4,20.4,0,0,0,4.777-1.753l19.788-10.134A4.239,4.239,0,0,0,118.432,271.738Z" transform="translate(-37.06 -222.36)"/><path class="f" d="M86.578,383.86l3.18,5.823,38.4-9.23a20.4,20.4,0,0,0,4.777-1.753l10.7-5.5C125.858,378.645,102.253,382.037,86.578,383.86Z" transform="translate(-72.712 -313.38)"/><path class="g" d="M0,330.845v25.442H18.375l4.24-4.24L5.654,326.605Z" transform="translate(0 -274.244)"/><path class="g" d="M0,465.244H18.375l4.24-4.24-3.11-4.664A99.962,99.962,0,0,1,0,462.148Z" transform="translate(0 -383.201)"/><circle class="h" cx="2.827" cy="2.827" r="2.827" transform="translate(9.894 72.153)"/></g></svg>