<svg xmlns="http://www.w3.org/2000/svg" width="74.877" height="74.833" viewBox="0 0 74.877 74.833"><defs><style>.a{fill:#45b649;}.b{fill:#97de3d;}.c{fill:#c0e1f0;}.d{fill:#fabe2c;}.e{fill:#ff9100;}</style></defs><g transform="translate(0 -0.15)"><path class="a" d="M211,180.85h13.162v39.632H211Z" transform="translate(-180.142 -154.274)"/><path class="a" d="M61,180.85H74.162v39.632H61Z" transform="translate(-52.079 -154.274)"/><path class="a" d="M361,180.85h13.162v39.632H361Z" transform="translate(-308.206 -154.274)"/><path class="a" d="M256,180.85h6.581v39.632H256Z" transform="translate(-218.561 -154.274)"/><path class="b" d="M31,421.85H96.81v10.968H31Z" transform="translate(-26.466 -360.029)"/><path class="c" d="M256,421.85h32.9v10.968H256Z" transform="translate(-218.561 -360.029)"/><path class="b" d="M31,120.85H96.81v13.162H31Z" transform="translate(-26.466 -103.048)"/><path class="b" d="M256,120.85h32.9v13.162H256Z" transform="translate(-218.561 -103.048)"/><path class="d" d="M37.439.15,0,14.072v8.117H74.877V14.072Z"/><path class="d" d="M293.439,14.072v8.117H256V.15Z" transform="translate(-218.561 0)"/><path class="b" d="M256,421.85h32.9v10.968H256Z" transform="translate(-218.561 -360.029)"/><path class="e" d="M0,481.85H74.877v4.387H0Z" transform="translate(0 -411.254)"/><path class="e" d="M256,481.85h37.439v4.387H256Z" transform="translate(-218.561 -411.254)"/><path class="a" d="M241,60.85h4.387v4.387H241Z" transform="translate(-205.755 -51.823)"/><path class="a" d="M256,60.85h2.194v4.387H256Z" transform="translate(-218.561 -51.823)"/></g></svg>