<svg xmlns="http://www.w3.org/2000/svg" width="94.355" height="74.833" viewBox="0 0 94.355 74.833"><defs><style>.a{fill:#fabe2c;}.b{fill:#fedab0;}.c{fill:#ff9100;}.d{fill:#ffd7a8;}.e{fill:#45b649;}.f{fill:#97de3d;}</style></defs><path class="a" d="M139.052,320h5.082v9.761h-5.082A3.052,3.052,0,0,1,136,326.709v-3.657A3.052,3.052,0,0,1,139.052,320Zm0,0" transform="translate(-108.344 -254.928)"/><path class="b" d="M176,299.129h3.254l7.221-4.815a3.052,3.052,0,0,1,4.232.847l.173.259a3.052,3.052,0,0,1-.381,3.851l-1.485,1.485h6.507l5.638-3.383a3.052,3.052,0,0,1,3.345,5.1l-8.983,6.417H176Zm0,0" transform="translate(-140.21 -234.057)"/><path class="c" d="M293.082,9.761H288V0h5.082a3.052,3.052,0,0,1,3.052,3.052V6.709A3.052,3.052,0,0,1,293.082,9.761Zm0,0" transform="translate(-229.435 0)"/><path class="d" d="M171.322,9.761h-3.254l-7.221,4.815a3.052,3.052,0,0,1-4.232-.847l-.173-.259a3.052,3.052,0,0,1,.381-3.851l1.485-1.485H151.8l-5.638,3.383a3.052,3.052,0,0,1-3.345-5.1L151.8,0h19.522Zm0,0" transform="translate(-112.757 0)"/><path class="e" d="M107.254,112H152.8a3.254,3.254,0,0,1,3.254,3.254v22.775a3.254,3.254,0,0,1-3.254,3.254H107.254A3.254,3.254,0,0,1,104,138.029V115.254A3.254,3.254,0,0,1,107.254,112Zm0,0" transform="translate(-82.851 -89.225)"/><path class="f" d="M321.761,208A9.761,9.761,0,0,0,312,217.761h6.507a3.254,3.254,0,0,0,3.254-3.254Zm0,0" transform="translate(-248.554 -165.703)"/><path class="f" d="M113.761,112h-6.507A3.254,3.254,0,0,0,104,115.254v6.507A9.761,9.761,0,0,0,113.761,112Zm0,0" transform="translate(-82.851 -89.225)"/><path class="f" d="M208.268,152.134A8.134,8.134,0,1,1,200.134,144,8.134,8.134,0,0,1,208.268,152.134Zm0,0" transform="translate(-152.957 -114.717)"/><path class="e" d="M305.627,80h29.283a1.627,1.627,0,0,1,1.627,1.627V97.895a1.627,1.627,0,0,1-1.627,1.627H305.627A1.627,1.627,0,0,1,304,97.895V81.627A1.627,1.627,0,0,1,305.627,80Zm0,0" transform="translate(-242.181 -63.732)"/><g transform="translate(61.819 16.268)"><path class="f" d="M374.507,115.254A3.254,3.254,0,1,1,371.254,112,3.254,3.254,0,0,1,374.507,115.254Zm0,0" transform="translate(-354.985 -105.493)"/><path class="f" d="M304,86.507A6.508,6.508,0,0,0,310.507,80h-4.88A1.627,1.627,0,0,0,304,81.627Zm0,0" transform="translate(-304 -80)"/><path class="f" d="M438.507,86.507A6.508,6.508,0,0,1,432,80h4.88a1.627,1.627,0,0,1,1.627,1.627Zm0,0" transform="translate(-405.971 -80)"/><path class="f" d="M438.507,144A6.508,6.508,0,0,0,432,150.507h4.88a1.627,1.627,0,0,0,1.627-1.627Zm0,0" transform="translate(-405.971 -130.986)"/><path class="f" d="M304,144v4.88a1.627,1.627,0,0,0,1.627,1.627h4.88A6.508,6.508,0,0,0,304,144Zm0,0" transform="translate(-304 -130.986)"/></g><path class="e" d="M1.627,192H30.909a1.627,1.627,0,0,1,1.627,1.627v16.268a1.627,1.627,0,0,1-1.627,1.627H1.627A1.627,1.627,0,0,1,0,209.895V193.627A1.627,1.627,0,0,1,1.627,192Zm0,0" transform="translate(0 -152.957)"/><path class="f" d="M70.507,227.254A3.254,3.254,0,1,1,67.254,224,3.254,3.254,0,0,1,70.507,227.254Zm0,0" transform="translate(-50.986 -178.449)"/><path class="f" d="M0,198.507A6.508,6.508,0,0,0,6.507,192H1.627A1.627,1.627,0,0,0,0,193.627Zm0,0" transform="translate(0 -152.957)"/><path class="f" d="M134.507,198.507A6.508,6.508,0,0,1,128,192h4.88a1.627,1.627,0,0,1,1.627,1.627Zm0,0" transform="translate(-101.971 -152.957)"/><path class="f" d="M134.507,256A6.508,6.508,0,0,0,128,262.507h4.88a1.627,1.627,0,0,0,1.627-1.627Zm0,0" transform="translate(-101.971 -203.942)"/><path class="f" d="M0,256v4.88a1.627,1.627,0,0,0,1.627,1.627h4.88A6.508,6.508,0,0,0,0,256Zm0,0" transform="translate(0 -203.942)"/></svg>